# xmcd
#
# Track frame offsets: 
#        150
#        15853
#        34398
#        56447
#        76740
#        101148
#        118936
#        139147
#        154549
#        178599
#        199313
#        213155
#
# Disc length: 3325 seconds
#
# Revision: 0
# Processed by: cddbd v1.5.2PL0 Copyright (c) Steve Scherf et al.
# Submitted via: ExactAudioCopy v0.95a5
#
DISCID=9b0cfb0c
DTITLE=Cheap Tobacco - Szum
DYEAR=2018
DGENRE=blues
TTITLE0=Nieideaqlni
TTITLE1=Thunder
TTITLE2=Nic
TTITLE3=W Niemilosci
TTITLE4=Halo
TTITLE5=Running Wild
TTITLE6=Szum
TTITLE7=Deszcz
TTITLE8=End of the World
TTITLE9=Wedrowka
TTITLE10=Bez Ciebie
TTITLE11=Slad
EXTD=
EXTT0=
EXTT1=
EXTT2=
EXTT3=
EXTT4=
EXTT5=
EXTT6=
EXTT7=
EXTT8=
EXTT9=
EXTT10=
EXTT11=
PLAYORDER=
